<svg xmlns="http://www.w3.org/2000/svg" viewBox="0 0 108.54 127.48"><defs><style>.cls-1{fill:#009fe3;stroke:#1d1d1b;stroke-miterlimit:10;stroke-width:4px;}.cls-2{fill:#1d1d1b;}</style></defs><g id="Layer_2" data-name="Layer 2"><g id="Layer_1-2" data-name="Layer 1"><rect class="cls-1" x="2" y="2" width="104.54" height="123.48"/><path class="cls-2" d="M36.52,64.06H27.94L18.87,38.28v-5H27V15.69H16.58V64.06H8.36V8.56H30.19q4.95,0,4.95,5.11V33.85q0,3.51-2.35,4.54a17,17,0,0,1-5.35.53Z" transform="translate(0 -2.92)"/><path class="cls-2" d="M35.43,119.52q0,5.07-5,5.07H13.24c-3.26,0-4.88-1.69-4.88-5.07V74.19c0-3.4,1.62-5.1,4.88-5.1H30.4q5,0,5,5.1v13h-8.2v-11H16.58v41.24H27.23V105.79h8.2Z" transform="translate(0 -2.92)"/><path class="cls-2" d="M69.77,124.59H61.62L60,114.06H49.66L48,124.59H39.89v-.14L50.54,69h8.65Zm-11-17.66-4-25-4,25Z" transform="translate(0 -2.92)"/><path class="cls-2" d="M101,99.3c0,3.46-1.68,5.18-5,5.18H82.61v20.11H74.38V69.09H95.93q5,0,5,5.1Zm-8.3-2V76.22h-10V97.35Z" transform="translate(0 -2.92)"/></g></g></svg>